<svg xmlns="http://www.w3.org/2000/svg" xmlns:xlink="http://www.w3.org/1999/xlink" viewBox="0 0 1280 720" data-pptx-page-role="content">
  <rect x="0" y="0" width="1280" height="720" fill="#FBF3E7"/>

  <g id="header">
    <text x="64" y="106" font-family="&quot;Pretendard ExtraBold&quot;, Pretendard, &quot;Malgun Gothic&quot;, sans-serif" font-size="42" font-weight="800" fill="#2B2420">핵심 개념: Skill과 Subagent</text>
    <text x="64" y="150" font-family="&quot;Pretendard SemiBold&quot;, Pretendard, &quot;Malgun Gothic&quot;, sans-serif" font-size="30" font-weight="600" fill="#0D47A1">Skill은 AI가 참고하는 업무 매뉴얼이고,</text>
    <text x="64" y="188" font-family="&quot;Pretendard SemiBold&quot;, Pretendard, &quot;Malgun Gothic&quot;, sans-serif" font-size="30" font-weight="600" fill="#0D47A1">Subagent는 특정 역할을 전담하는 별도 담당자다</text>
  </g>

  <g id="pillar-claude">
    <rect x="64" y="250" width="270" height="370" rx="16" fill="#FFF8EC" stroke="#2B2420" stroke-width="1.5" stroke-opacity="0.3"/>
    <path d="M 76 250 h 246 a 12 12 0 0 1 12 12 v 88 h -270 v -88 a 12 12 0 0 1 12 -12 Z" fill="#1565C0" fill-opacity="0.16"/>
    <circle cx="199" cy="304" r="26" fill="#FFF8EC" stroke="#1565C0" stroke-width="2"/>
    <use data-icon="phosphor-duotone/robot" x="187" y="292" width="24" height="24" fill="#1565C0"/>
    <text x="199" y="362" text-anchor="middle" font-family="&quot;Pretendard SemiBold&quot;, Pretendard, &quot;Malgun Gothic&quot;, sans-serif" font-size="24" font-weight="600" fill="#2B2420">Claude</text>
    <path d="M 88,386 Q 199,392 310,386" fill="none" stroke="#2B2420" stroke-width="2" stroke-opacity="0.3"/>
    <text x="199" y="450" text-anchor="middle" font-family="&quot;Pretendard SemiBold&quot;, Pretendard, &quot;Malgun Gothic&quot;, sans-serif" font-size="24" font-weight="600" fill="#1565C0">신입 직원</text>
  </g>

  <g id="pillar-skill">
    <rect x="358" y="250" width="270" height="370" rx="16" fill="#FFF8EC" stroke="#2B2420" stroke-width="1.5" stroke-opacity="0.3"/>
    <path d="M 370 250 h 246 a 12 12 0 0 1 12 12 v 88 h -270 v -88 a 12 12 0 0 1 12 -12 Z" fill="#FF6B35" fill-opacity="0.16"/>
    <circle cx="493" cy="304" r="26" fill="#FFF8EC" stroke="#FF6B35" stroke-width="2"/>
    <use data-icon="phosphor-duotone/puzzle-piece" x="481" y="292" width="24" height="24" fill="#FF6B35"/>
    <text x="493" y="362" text-anchor="middle" font-family="&quot;Pretendard SemiBold&quot;, Pretendard, &quot;Malgun Gothic&quot;, sans-serif" font-size="24" font-weight="600" fill="#2B2420">Skill</text>
    <path d="M 382,386 Q 493,392 604,386" fill="none" stroke="#2B2420" stroke-width="2" stroke-opacity="0.3"/>
    <text x="493" y="450" text-anchor="middle" font-family="&quot;Pretendard SemiBold&quot;, Pretendard, &quot;Malgun Gothic&quot;, sans-serif" font-size="24" font-weight="600" fill="#FF6B35">업무 매뉴얼</text>
  </g>

  <g id="pillar-subagent">
    <rect x="652" y="250" width="270" height="370" rx="16" fill="#FFF8EC" stroke="#2B2420" stroke-width="1.5" stroke-opacity="0.3"/>
    <path d="M 664 250 h 246 a 12 12 0 0 1 12 12 v 88 h -270 v -88 a 12 12 0 0 1 12 -12 Z" fill="#0D47A1" fill-opacity="0.16"/>
    <circle cx="787" cy="304" r="26" fill="#FFF8EC" stroke="#0D47A1" stroke-width="2"/>
    <use data-icon="phosphor-duotone/gear-six" x="775" y="292" width="24" height="24" fill="#0D47A1"/>
    <text x="787" y="362" text-anchor="middle" font-family="&quot;Pretendard SemiBold&quot;, Pretendard, &quot;Malgun Gothic&quot;, sans-serif" font-size="24" font-weight="600" fill="#2B2420">Subagent</text>
    <path d="M 676,386 Q 787,392 898,386" fill="none" stroke="#2B2420" stroke-width="2" stroke-opacity="0.3"/>
    <text x="787" y="450" text-anchor="middle" font-family="&quot;Pretendard SemiBold&quot;, Pretendard, &quot;Malgun Gothic&quot;, sans-serif" font-size="24" font-weight="600" fill="#0D47A1">옆 팀 담당자</text>
  </g>

  <g id="pillar-template">
    <rect x="946" y="250" width="270" height="370" rx="16" fill="#FFF8EC" stroke="#2B2420" stroke-width="1.5" stroke-opacity="0.3"/>
    <path d="M 958 250 h 246 a 12 12 0 0 1 12 12 v 88 h -270 v -88 a 12 12 0 0 1 12 -12 Z" fill="#2E7D32" fill-opacity="0.16"/>
    <circle cx="1081" cy="304" r="26" fill="#FFF8EC" stroke="#2E7D32" stroke-width="2"/>
    <use data-icon="phosphor-duotone/book" x="1069" y="292" width="24" height="24" fill="#2E7D32"/>
    <text x="1081" y="362" text-anchor="middle" font-family="&quot;Pretendard SemiBold&quot;, Pretendard, &quot;Malgun Gothic&quot;, sans-serif" font-size="24" font-weight="600" fill="#2B2420">Template</text>
    <path d="M 970,386 Q 1081,392 1192,386" fill="none" stroke="#2B2420" stroke-width="2" stroke-opacity="0.3"/>
    <text x="1081" y="450" text-anchor="middle" font-family="&quot;Pretendard SemiBold&quot;, Pretendard, &quot;Malgun Gothic&quot;, sans-serif" font-size="24" font-weight="600" fill="#2E7D32">표준 양식</text>
  </g>

  <g id="page-number">
    <text x="1216" y="690" text-anchor="end" font-family="Pretendard, &quot;Malgun Gothic&quot;, sans-serif" font-size="16" fill="#A69783">4 / 14</text>
  </g>
</svg>
